<svg xmlns="http://www.w3.org/2000/svg" width="183.71" height="20.145" viewBox="0 0 183.71 20.145"><g transform="translate(-97.12 -449.07)"><path d="M97.12,465.555V452.367h3.3v13.188Zm3.3-16.485h9.891v3.3h-9.891Zm0,16.485h9.891v3.3h-9.891Z" transform="translate(0)"/><path d="M122.12,465.555V452.367h3.3v13.188Zm3.3-16.485h9.891v3.3h-9.891Zm9.891,19.782h-9.891v-3.3h9.891Zm3.3-16.485v13.188h-3.3V452.367Z" transform="translate(-8.515)"/><path d="M155.417,455.664h-3.3V449.07h3.3Zm0,9.891v-9.891h3.3v9.891Zm3.3,0h3.3v3.3h-3.3Zm6.594-9.891v9.891h-3.3v-9.891Zm3.3-6.594v6.594h-3.3V449.07Z" transform="translate(-18.733)"/><path d="M185.417,449.07v19.782h-3.3V449.07Z" transform="translate(-28.951)"/><path d="M205.308,468.852H192.12V449.07h13.188v3.3h-9.891v13.188h9.891Zm3.3-16.485v13.188h-3.3V452.367Z" transform="translate(-32.356)"/><path d="M248.809,468.869h-1.853l-2.44-6.179h-9.39l-2.466,6.179h-1.8l8.058-19.749h1.853Zm-9.39-16.894-3.712,9.251h8.223l-3.627-9.251-.442-1.385Z" transform="translate(-45.551 -0.017)"/><path d="M269.569,456.81a4.187,4.187,0,0,1,.884.086v1.635a8.448,8.448,0,0,0-1.134-.086,4.241,4.241,0,0,0-3.238,1.358,5.352,5.352,0,0,0-1.3,3.765v7.919H263.12V457.2h1.55v3.185A4.894,4.894,0,0,1,269.569,456.81Z" transform="translate(-56.539 -2.636)"/><path d="M283.769,471.871a5.953,5.953,0,0,1-4.721-1.978,8.029,8.029,0,0,1-1.728-5.466,8.17,8.17,0,0,1,1.747-5.552,6.015,6.015,0,0,1,4.794-2,5.892,5.892,0,0,1,4,1.332,5.617,5.617,0,0,1,1.866,3.574h-1.576a4.084,4.084,0,0,0-1.385-2.559,4.372,4.372,0,0,0-2.908-.93,4.328,4.328,0,0,0-3.627,1.6,7.162,7.162,0,0,0-1.246,4.5,7.032,7.032,0,0,0,1.273,4.484,4.343,4.343,0,0,0,3.6,1.609q3.63,0,4.293-3.825h1.55a6.1,6.1,0,0,1-1.866,3.851A5.962,5.962,0,0,1,283.769,471.871Z" transform="translate(-61.375 -2.657)"/><path d="M308.37,454.251A4.824,4.824,0,0,1,312,455.583a5.03,5.03,0,0,1,1.3,3.686v9.641h-1.662v-9.331q0-3.848-3.6-3.851a4.367,4.367,0,0,0-3.363,1.358,5.677,5.677,0,0,0-1.259,3.989v7.84H301.75V449.2h1.662v7.979A5.076,5.076,0,0,1,308.37,454.251Z" transform="translate(-69.696 -0.044)"/><path d="M328.184,451.412H326.41V449.17h1.774Zm-.059,17.474h-1.662V454.6h1.662Z" transform="translate(-78.095 -0.034)"/><path d="M341.4,467.535l3.765-10.135h1.688l-5.513,14.289h-1.662L334,457.4h1.8l3.851,10.135.884,2.717Z" transform="translate(-80.68 -2.837)"/><path d="M369.055,463.873v.719H357.812a6.411,6.411,0,0,0,1.332,4.319,4.548,4.548,0,0,0,3.653,1.55,4.328,4.328,0,0,0,4.543-3.271l1.523.224a5.975,5.975,0,0,1-2.189,3.225,6.311,6.311,0,0,1-3.9,1.207,6.033,6.033,0,0,1-4.847-2.077,9.244,9.244,0,0,1-.026-10.854,5.967,5.967,0,0,1,4.761-2.024,6.04,6.04,0,0,1,4.682,1.912A7.4,7.4,0,0,1,369.055,463.873Zm-6.37-5.592a4.494,4.494,0,0,0-3.4,1.345,5.82,5.82,0,0,0-1.457,3.752H367.5a6.067,6.067,0,0,0-1.437-3.752A4.381,4.381,0,0,0,362.685,458.281Z" transform="translate(-88.224 -2.663)"/></g></svg>